<svg width="309" height="129" viewBox="0 0 309 129" fill="none" xmlns="http://www.w3.org/2000/svg">
<path d="M244.8 0H64.1995C28.7431 0 0 28.7431 0 64.1995C0 99.656 28.7431 128.399 64.1995 128.399H244.8C280.257 128.399 309 99.656 309 64.1995C309 28.7431 280.257 0 244.8 0Z" fill="#303030"/>
<path d="M158.777 45.1831H133.156V86.1044H145.618V75.0964H158.767C161.857 75.0964 164.867 75.0055 167.795 74.0663C173.471 72.2586 177.682 67.1889 177.682 60.3115C177.682 53.434 173.552 48.4451 167.967 46.4758C164.877 45.3548 161.948 45.1831 158.767 45.1831H158.777ZM145.628 65.4721V55.0701H156.979C159.383 55.0701 160.766 55.3326 161.877 55.7568C163.857 56.5344 164.796 58.332 164.796 60.2307C164.796 62.2909 163.675 64.2703 161.534 64.957C160.504 65.3004 159.302 65.4721 156.979 65.4721H145.628Z" fill="white"/>
<path d="M195.558 71.1477L201.486 54.6459H202.435L208.363 71.1477H195.558ZM192.467 80.1762H211.383L213.786 86.1044H227.794L211.029 45.1831H192.801L176.036 86.1044H190.134L192.457 80.1762H192.467Z" fill="white"/>
<path d="M258.131 45.1831L247.992 63.836H247.558L237.327 45.1831H222.805L241.286 75.2681V86.1044H254.183V74.238L271.725 45.1831H258.131Z" fill="white"/>
<path d="M37.2856 33.0439H106.525V67.8654C106.525 76.7929 101.758 85.0438 94.0321 89.5076L71.9051 102.283L49.7781 89.5076C42.0423 85.0438 37.2856 76.7929 37.2856 67.8654V33.0439Z" fill="#FFDD2D"/>
<path fill-rule="evenodd" clip-rule="evenodd" d="M56.2818 51.3738V62.1999C57.7664 60.5235 60.4527 59.3924 63.5329 59.3924H66.8757V71.9859C66.8757 75.3388 65.9668 78.2675 64.6135 79.8833H79.1662C77.8231 78.2675 76.9141 75.3388 76.9141 71.996V59.4025H80.2569C83.3371 59.4025 86.0336 60.5336 87.508 62.21V51.3839H56.2717L56.2818 51.3738Z" fill="#333333"/>
</svg>
